<svg xmlns="http://www.w3.org/2000/svg" viewBox="0 0 64 64" width="64" height="64">
  <rect width="64" height="64" rx="16" fill="#fff7ed"/>
  <rect x="8" y="8" width="48" height="48" rx="6" fill="white" stroke="#ea7c1f" stroke-width="2"/>
  <rect x="8" y="8" width="48" height="14" rx="6" fill="#ea7c1f" opacity="0.15"/>
  <line x1="8" y1="22" x2="56" y2="22" stroke="#ea7c1f" stroke-width="1.5" opacity="0.35"/>
  <line x1="28" y1="8" x2="28" y2="56" stroke="#ea7c1f" stroke-width="1.5" opacity="0.25"/>
  <rect x="11" y="11" width="13" height="7" rx="2" fill="#ea7c1f" opacity="0.3"/>
  <line x1="11" y1="28" x2="24" y2="28" stroke="#ea7c1f" stroke-width="2" stroke-linecap="round" opacity="0.7"/>
  <line x1="11" y1="35" x2="24" y2="35" stroke="#ea7c1f" stroke-width="2" stroke-linecap="round" opacity="0.55"/>
  <line x1="11" y1="42" x2="24" y2="42" stroke="#ea7c1f" stroke-width="2" stroke-linecap="round" opacity="0.4"/>
  <line x1="11" y1="49" x2="24" y2="49" stroke="#ea7c1f" stroke-width="2" stroke-linecap="round" opacity="0.3"/>
  <line x1="31" y1="28" x2="53" y2="28" stroke="#ea7c1f" stroke-width="2.5" stroke-linecap="round"/>
  <line x1="31" y1="35" x2="49" y2="35" stroke="#ea7c1f" stroke-width="2.5" stroke-linecap="round" opacity="0.7"/>
  <line x1="31" y1="42" x2="51" y2="42" stroke="#ea7c1f" stroke-width="2.5" stroke-linecap="round" opacity="0.5"/>
  <line x1="31" y1="49" x2="46" y2="49" stroke="#ea7c1f" stroke-width="2.5" stroke-linecap="round" opacity="0.35"/>
</svg>