<svg xmlns="http://www.w3.org/2000/svg" viewBox="0 0 64 64" width="64" height="64">
  <rect width="64" height="64" rx="16" fill="#f0f9ff"/>
  <path d="M10,42 A24,24 0 0,1 54,42" fill="none" stroke="#e2e8f0" stroke-width="9" stroke-linecap="round"/>
  <path d="M10,42 A24,24 0 0,1 32,18" fill="none" stroke="#16a34a" stroke-width="9" stroke-linecap="round" opacity="0.55"/>
  <path d="M32,18 A24,24 0 0,1 54,42" fill="none" stroke="#f59e0b" stroke-width="9" stroke-linecap="round" opacity="0.5"/>
  <path d="M10,42 A24,24 0 0,1 20,23" fill="none" stroke="#16a34a" stroke-width="9" stroke-linecap="round"/>
  <line x1="32" y1="42" x2="44" y2="22" stroke="#1d3557" stroke-width="3.5" stroke-linecap="round"/>
  <circle cx="32" cy="42" r="5" fill="#1d3557"/>
  <circle cx="32" cy="42" r="2.5" fill="white"/>
  <line x1="14" y1="44" x2="17" y2="41" stroke="#94a3b8" stroke-width="2" stroke-linecap="round"/>
  <line x1="32" y1="18" x2="32" y2="21" stroke="#94a3b8" stroke-width="2" stroke-linecap="round"/>
  <line x1="50" y1="44" x2="47" y2="41" stroke="#94a3b8" stroke-width="2" stroke-linecap="round"/>
</svg>